<svg width="150" height="100" viewBox="0 0 150 100" fill="none" xmlns="http://www.w3.org/2000/svg">
<path d="M34.9209 77V66.8H33.5709V70.595C33.0909 69.68 32.2659 69.17 31.1259 69.17C29.0709 69.17 28.0959 70.955 28.0959 73.175C28.0959 75.395 29.0859 77.18 31.1559 77.18C32.2959 77.18 33.0909 76.67 33.5709 75.755V77H34.9209ZM33.5709 73.82C33.5709 75.14 32.8209 76.1 31.4709 76.1C30.3609 76.1 29.5209 75.395 29.5209 74.36V71.99C29.5209 70.955 30.3609 70.25 31.4709 70.25C32.8209 70.25 33.5709 71.21 33.5709 72.53V73.82ZM39.5521 77.18C41.1871 77.18 42.6271 76.205 42.7621 74.57H41.4121C41.3221 75.62 40.5271 76.1 39.5671 76.1C38.6071 76.1 37.6771 75.47 37.6771 74.36V73.55H42.8221V72.83C42.8221 70.79 41.7421 69.17 39.5521 69.17C37.4521 69.17 36.2521 70.835 36.2521 73.175C36.2521 75.515 37.3471 77.18 39.5521 77.18ZM41.4271 72.47H37.6771V72.05C37.6771 70.925 38.5471 70.25 39.5521 70.25C40.5571 70.25 41.4271 70.925 41.4271 72.05V72.47ZM46.7635 77.18C48.5635 77.18 49.7935 76.175 49.7935 74.915C49.7935 73.685 49.0585 72.98 47.5435 72.665L46.2535 72.395C45.5035 72.245 45.1735 71.93 45.1735 71.33C45.1735 70.7 45.8335 70.25 46.6735 70.25C47.4835 70.25 48.1735 70.625 48.2035 71.63H49.5535C49.5235 69.905 48.0985 69.17 46.6585 69.17C44.9935 69.17 43.8535 70.13 43.8535 71.345C43.8535 72.545 44.5735 73.25 45.8185 73.505L47.0785 73.76C48.0985 73.955 48.4435 74.315 48.4435 74.93C48.4435 75.68 47.6785 76.1 46.7785 76.1C45.8485 76.1 45.0385 75.605 45.0085 74.585H43.6585C43.6885 76.295 45.0385 77.18 46.7635 77.18ZM52.3867 66.8H50.9767V68.21H52.3867V66.8ZM52.3567 77V69.35H51.0067V77H52.3567ZM57.2146 79.925C58.8496 79.925 60.5146 78.965 60.5146 76.85V69.35H59.1646V70.595C58.6846 69.68 57.8596 69.17 56.7196 69.17C54.6646 69.17 53.6896 70.955 53.6896 73.175C53.6896 75.395 54.6796 77.18 56.7496 77.18C57.8896 77.18 58.6846 76.67 59.1646 75.755V76.79C59.1646 78.26 58.2046 78.845 57.1546 78.845C56.1046 78.845 55.4146 78.395 55.3096 77.525H53.9596C54.1846 79.355 55.6246 79.925 57.2146 79.925ZM59.1646 73.82C59.1646 75.14 58.4146 76.1 57.0646 76.1C55.9546 76.1 55.1146 75.395 55.1146 74.36V71.99C55.1146 70.955 55.9546 70.25 57.0646 70.25C58.4146 70.25 59.1646 71.21 59.1646 72.53V73.82ZM67.0209 77H68.3709V71.9C68.3709 69.95 67.3659 69.17 65.8809 69.17C64.7259 69.17 64.0209 69.725 63.6009 70.61V69.35H62.2509V77H63.6009V72.53C63.6009 71.195 64.3959 70.25 65.5059 70.25C66.6609 70.25 67.0209 70.94 67.0209 72.05V77ZM73.6541 77H76.7441V75.845H74.9891V70.505H76.7441V69.35H74.9891V66.8H73.6541V69.35H72.3641V70.505H73.6541V77ZM79.2366 77V72.53C79.2366 71.195 80.0316 70.25 81.1416 70.25C82.2966 70.25 82.6566 70.94 82.6566 72.05V77H84.0066V71.9C84.0066 69.95 83.0016 69.17 81.5166 69.17C80.3616 69.17 79.6566 69.725 79.2366 70.61V66.8H77.8866V77H79.2366ZM88.5863 77.18C90.2213 77.18 91.6613 76.205 91.7963 74.57H90.4463C90.3563 75.62 89.5613 76.1 88.6013 76.1C87.6413 76.1 86.7113 75.47 86.7113 74.36V73.55H91.8563V72.83C91.8563 70.79 90.7763 69.17 88.5863 69.17C86.4863 69.17 85.2863 70.835 85.2863 73.175C85.2863 75.515 86.3813 77.18 88.5863 77.18ZM90.4613 72.47H86.7113V72.05C86.7113 70.925 87.5813 70.25 88.5863 70.25C89.5913 70.25 90.4613 70.925 90.4613 72.05V72.47ZM102.051 77H103.476L105.711 69.35H104.391L102.861 75.335H102.801L101.391 69.35H99.7563L98.4063 75.335H98.3463L96.8313 69.35H95.4663L97.7013 77H99.0963L100.551 70.805H100.611L102.051 77ZM109.452 77.18C111.087 77.18 112.527 76.205 112.662 74.57H111.312C111.222 75.62 110.427 76.1 109.467 76.1C108.507 76.1 107.577 75.47 107.577 74.36V73.55H112.722V72.83C112.722 70.79 111.642 69.17 109.452 69.17C107.352 69.17 106.152 70.835 106.152 73.175C106.152 75.515 107.247 77.18 109.452 77.18ZM111.327 72.47H107.577V72.05C107.577 70.925 108.447 70.25 109.452 70.25C110.457 70.25 111.327 70.925 111.327 72.05V72.47ZM114.083 77H115.433V75.755C115.913 76.67 116.723 77.18 117.878 77.18C119.933 77.18 120.908 75.395 120.908 73.175C120.908 70.955 119.933 69.17 117.878 69.17C116.723 69.17 115.913 69.68 115.433 70.595V66.8H114.083V77ZM115.433 73.82V72.53C115.433 71.21 116.183 70.25 117.533 70.25C118.658 70.25 119.483 70.955 119.483 71.99V74.36C119.483 75.395 118.658 76.1 117.533 76.1C116.183 76.1 115.433 75.14 115.433 73.82Z" fill="black"/>
<path fill-rule="evenodd" clip-rule="evenodd" d="M14.4315 37.6598C15.0039 35.779 16.5166 34.3276 19.1535 34.3276C21.4226 34.3276 23.303 35.779 23.5077 37.6598H14.4315ZM19.1535 31.098C14.2475 31.098 10.466 34.6957 10.466 39.9289C10.466 45.1414 14.4315 48.7598 19.1535 48.7598C22.7512 48.7598 25.3884 46.9403 26.9011 44.4259L23.7323 42.9948C23.1602 44.4259 21.6066 45.5095 19.3375 45.5095C16.1282 45.5095 14.2475 43.3426 14.2475 40.8282H27.0848L27.4529 39.7449C27.4529 34.5117 23.6914 31.098 19.1535 31.098Z" fill="black"/>
<path fill-rule="evenodd" clip-rule="evenodd" d="M149.632 39.0294H143.07V42.0546H146.177C145.994 44.2828 143.97 45.5296 141.721 45.5296C137.98 45.5296 136.365 42.7905 136.365 40.0105C136.365 37.2099 138 34.3483 141.782 34.3483C143.908 34.3483 145.503 35.4519 146.3 36.9646L149.387 35.4316C147.853 32.631 145.237 31.0981 141.782 31.0774C136.468 31.0981 132.665 34.9001 132.665 40.0105C132.665 45.3458 136.815 48.7595 141.435 48.7595C146.075 48.7595 150 45.3458 150 40.1127L149.632 39.0294Z" fill="black"/>
<path fill-rule="evenodd" clip-rule="evenodd" d="M3.96549 33.4284L3.76114 33.2647L3.39305 31.4455H0V48.3914H3.76114V38.5182C3.84268 36.4334 5.27378 34.6958 8.17626 34.6958H10.1798V31.4455C9.42331 31.0981 9.05522 31.0981 8.29906 31.0981C6.74549 31.0981 5.29408 31.7727 3.96549 33.4284Z" fill="black"/>
<path fill-rule="evenodd" clip-rule="evenodd" d="M76.3721 43.1263L71.8928 31.4456H67.9882L74.5244 47.8643L71.5044 55.6073H75.0612L84.4845 31.4456H80.9277L76.3721 43.1263Z" fill="black"/>
<path fill-rule="evenodd" clip-rule="evenodd" d="M63.0825 32.8968V21H66.8436V48.3916H63.4506L63.0825 46.9402L62.8984 46.7765L62.6941 46.9402C61.5698 48.0239 59.6891 48.7597 57.7881 48.7597C52.882 48.7597 48.7325 45.1414 48.7325 39.9288C48.7325 34.6956 52.882 31.0979 57.7881 31.0979C59.6482 31.0979 61.5698 31.8135 62.6941 32.8968L62.8984 33.0808L63.0825 32.8968ZM57.9924 45.5095C61.2017 45.5095 63.4506 42.9947 63.4506 39.9288C63.4506 36.8626 61.2017 34.3276 57.9924 34.3276C54.3947 34.3276 52.473 36.8626 52.473 39.9288C52.473 42.9947 54.3947 45.5095 57.9924 45.5095Z" fill="black"/>
<path fill-rule="evenodd" clip-rule="evenodd" d="M37.8575 45.5095C34.2804 45.5095 32.3381 42.9947 32.3381 39.9288C32.3381 36.8626 34.2804 34.3276 37.8575 34.3276C41.0668 34.3276 43.336 36.8626 43.336 39.9288C43.336 42.9947 41.0668 45.5095 37.8575 45.5095ZM42.9472 32.8968L42.7635 33.0808L42.5795 32.8968C41.4346 31.8135 39.5542 31.0979 37.6735 31.0979C32.7678 31.0979 28.6179 34.6957 28.6179 39.9288C28.6179 45.1414 32.7678 48.7597 37.6735 48.7597C39.5542 48.7597 41.4346 48.0239 42.5795 46.9402L42.7635 46.7765L42.9472 46.9402L43.336 48.3916H46.729V31.4454H43.336L42.9472 32.8968Z" fill="black"/>
<path fill-rule="evenodd" clip-rule="evenodd" d="M104.926 31.098C103.434 31.098 101.533 31.8135 100.593 32.8969L99.6526 33.9802C98.6711 32.2019 96.7085 31.098 93.9898 31.098C92.4771 31.098 90.5967 31.8135 89.8406 32.8969L89.6565 33.0809L89.4518 32.8969L89.0841 31.4455H85.6907V48.3917H89.4518V38.1503C89.5337 36.0652 91.3941 34.3276 93.6017 34.3276C95.5027 34.3276 96.627 35.4113 96.627 37.5779V48.3917H100.409V38.1503C100.49 36.0652 102.33 34.3276 104.558 34.3276C106.439 34.3276 107.584 35.4113 107.584 37.5779V48.3917H111.345V37.2101C111.345 33.6124 109.096 31.098 104.926 31.098Z" fill="black"/>
<path fill-rule="evenodd" clip-rule="evenodd" d="M122.22 45.5095C118.643 45.5095 116.721 42.9947 116.721 39.9288C116.721 36.8626 118.643 34.3276 122.22 34.3276C125.429 34.3276 127.698 36.8626 127.698 39.9288C127.698 42.9947 125.429 45.5095 122.22 45.5095ZM127.33 32.8968L127.146 33.0808L126.942 32.8968C125.817 31.8135 123.937 31.0979 122.036 31.0979C117.13 31.0979 112.98 34.6957 112.98 39.9288C112.98 45.1414 117.13 48.7597 122.036 48.7597C123.937 48.7597 125.817 48.0239 126.942 46.9402L127.146 46.7765L127.33 46.9402L127.698 48.3916H131.091V31.4454H127.698L127.33 32.8968Z" fill="black"/>
</svg>
